# xmcd CD database file
#
# Track frame offsets:
#	150
#	21397
#	41190
#	55297
#	73020
#	90997
#	99950
#	120977
#	156042
#	171780
#	179665
#	189467
#	203930
#	209547
#	224985
#
# Disc length: 3190 seconds
#
# Revision: 0
# Processed by: cddbd v1.4PL0 Copyright (c) Steve Scherf et al.
# Submitted via: CDex 1.50Beta7
#
DISCID=e00c740f
DTITLE=Qaballah Steppers - Passage At Noon
DYEAR=1998
DGENRE=Jazz
TTITLE0=Black star
TTITLE1=No room for mine
TTITLE2=A thirsty fish
TTITLE3=Covalant bounding
TTITLE4=Lot of civilisation
TTITLE5=Speechles
TTITLE6=Quarrel of toys
TTITLE7=Brooklyn rumba
TTITLE8=To become
TTITLE9=Bordeline taksi
TTITLE10=Enter
TTITLE11=North 8th at noon
TTITLE12=Green ears in between stories
TTITLE13=Interrupted data
TTITLE14=Outroad (Live at Brooklyn Brewery)
EXTD=YEAR: 1998
EXTT0=
EXTT1=
EXTT2=
EXTT3=
EXTT4=
EXTT5=
EXTT6=
EXTT7=
EXTT8=
EXTT9=
EXTT10=
EXTT11=
EXTT12=
EXTT13=
EXTT14=
PLAYORDER=
